<svg width="57" height="42" viewBox="0 0 57 42" fill="none" xmlns="http://www.w3.org/2000/svg">
<path d="M56.5293 10.3615L56.4585 9.89369L56.3848 9.9104C55.8813 7.5965 54.7215 5.46998 53.0396 3.7769C51.3577 2.08381 49.2223 0.893368 46.8807 0.343296C44.539 -0.206777 42.0867 -0.0939907 39.8075 0.668604C37.5284 1.4312 35.5155 2.81243 34.0018 4.65249C32.4881 6.49255 31.5354 8.71622 31.2541 11.0662C30.9727 13.4162 31.3741 15.7965 32.4118 17.9316C33.4495 20.0668 35.0811 21.8695 37.1179 23.1313C39.1547 24.393 41.5133 25.0622 43.921 25.0614C44.5528 25.0614 45.1591 24.9667 45.7626 24.8804C45.5671 25.5265 45.366 26.1836 45.043 26.774C44.72 27.6316 44.2156 28.3751 43.7141 29.1242C43.2948 29.9345 42.5553 30.483 42.0113 31.1764C41.4418 31.8503 40.6655 32.2986 40.0506 32.8583C39.4471 33.4431 38.6566 33.7355 38.0276 34.1476C37.3703 34.5179 36.798 34.9273 36.186 35.1222L34.6588 35.7404L33.3158 36.2889L34.6871 41.6883L36.3786 41.2873C36.9198 41.1536 37.58 40.9977 38.3308 40.8111C39.0986 40.6719 39.9175 40.2904 40.8298 39.9423C41.728 39.5441 42.7735 39.2796 43.7425 38.6419C44.7171 38.0349 45.842 37.5281 46.8336 36.715C47.7941 35.8768 48.953 35.15 49.8086 34.0863C50.7436 33.0894 51.6673 32.0424 52.3841 30.8506C53.2143 29.7145 53.7781 28.467 54.3731 27.2334C54.9115 25.9998 55.345 24.7384 55.6991 23.5132C56.3706 21.0572 56.671 18.7237 56.7871 16.7271C56.8835 14.7278 56.8268 13.0654 56.7078 11.8624C56.668 11.36 56.6084 10.8594 56.5293 10.3615ZM25.3626 10.3615L25.2918 9.89369L25.2181 9.9104C24.7147 7.5965 23.5549 5.46998 21.8729 3.7769C20.191 2.08381 18.0557 0.893368 15.714 0.343296C13.3723 -0.206777 10.92 -0.0939907 8.64088 0.668604C6.36172 1.4312 4.34884 2.81243 2.83513 4.65249C1.32143 6.49255 0.368767 8.71622 0.0873831 11.0662C-0.194001 13.4162 0.207391 15.7965 1.24511 17.9316C2.28284 20.0668 3.91448 21.8695 5.95125 23.1313C7.98802 24.393 10.3467 25.0622 12.7543 25.0614C13.3861 25.0614 13.9925 24.9667 14.596 24.8804C14.4005 25.5265 14.1993 26.1836 13.8763 26.774C13.5533 27.6316 13.049 28.3751 12.5475 29.1242C12.1281 29.9345 11.3886 30.483 10.8446 31.1764C10.2751 31.8503 9.49879 32.2986 8.88396 32.8583C8.28046 33.4431 7.48996 33.7355 6.86096 34.1476C6.20363 34.5179 5.6313 34.9273 5.0193 35.1222L3.49213 35.7404C2.6393 36.0829 2.15196 36.2834 2.15196 36.2834L3.5233 41.6827L5.2148 41.2817C5.75596 41.1481 6.41613 40.9921 7.16696 40.8056C7.93479 40.6663 8.75363 40.2848 9.66596 39.9368C10.5641 39.5386 11.6096 39.274 12.5786 38.6364C13.5533 38.0293 14.6781 37.5225 15.6698 36.7094C16.6303 35.8713 17.7891 35.1445 18.6448 34.0808C19.5798 33.0839 20.5035 32.0369 21.2203 30.845C22.0505 29.7089 22.6143 28.4614 23.2093 27.2278C23.7476 25.9943 24.1811 24.7328 24.5353 23.5076C25.2068 21.0516 25.5071 18.7181 25.6233 16.7215C25.7196 14.7222 25.663 13.0598 25.544 11.8568C25.5017 11.3564 25.4412 10.8577 25.3626 10.3615Z" fill="#2A0404"/>
</svg>
