<svg width="32" height="32" viewBox="0 0 32 32" fill="none" xmlns="http://www.w3.org/2000/svg">
<g clip-path="url(#clip0_64_61)">
<path d="M32 32H24V29.3333H29.3333V24H32V32ZM32 4C32 2.93913 31.5786 1.92172 30.8284 1.17157C30.0783 0.421427 29.0609 0 28 0L24 0V2.66667H28C28.3536 2.66667 28.6928 2.80714 28.9428 3.05719C29.1929 3.30724 29.3333 3.64638 29.3333 4V8H32V4ZM8 29.3333H2.66667V24H0V32H8V29.3333ZM2.66667 4C2.66667 3.64638 2.80714 3.30724 3.05719 3.05719C3.30724 2.80714 3.64638 2.66667 4 2.66667H8V0H4C2.93913 0 1.92172 0.421427 1.17157 1.17157C0.421427 1.92172 0 2.93913 0 4L0 8H2.66667V4ZM21.3333 16C21.3333 14.9452 21.0205 13.914 20.4345 13.037C19.8485 12.1599 19.0155 11.4763 18.041 11.0726C17.0664 10.669 15.9941 10.5634 14.9595 10.7691C13.925 10.9749 12.9746 11.4829 12.2288 12.2288C11.4829 12.9746 10.9749 13.925 10.7691 14.9595C10.5634 15.9941 10.669 17.0664 11.0726 18.041C11.4763 19.0155 12.1599 19.8485 13.037 20.4345C13.914 21.0205 14.9452 21.3333 16 21.3333C17.4145 21.3333 18.771 20.7714 19.7712 19.7712C20.7714 18.771 21.3333 17.4145 21.3333 16ZM18.6667 16C18.6667 16.5274 18.5103 17.043 18.2173 17.4815C17.9242 17.9201 17.5078 18.2618 17.0205 18.4637C16.5332 18.6655 15.997 18.7183 15.4798 18.6154C14.9625 18.5125 14.4873 18.2586 14.1144 17.8856C13.7414 17.5127 13.4875 17.0375 13.3846 16.5202C13.2817 16.003 13.3345 15.4668 13.5363 14.9795C13.7382 14.4922 14.0799 14.0758 14.5185 13.7827C14.957 13.4897 15.4726 13.3333 16 13.3333C16.7072 13.3333 17.3855 13.6143 17.8856 14.1144C18.3857 14.6145 18.6667 15.2928 18.6667 16Z" fill="#3D3D4E"/>
</g>
<defs>
<clipPath id="clip0_64_61">
<rect width="32" height="32" fill="white"/>
</clipPath>
</defs>
</svg>
