<svg width="96" height="96" viewBox="0 0 96 96" fill="none" xmlns="http://www.w3.org/2000/svg">
<circle cx="48" cy="48" r="48" fill="url(#paint0_linear_42_71)"/>
<path fill-rule="evenodd" clip-rule="evenodd" d="M66.5115 26.8964C67.0635 26.8975 67.5118 27.3456 67.5128 27.8976L67.5155 29.8781C67.5237 34.8855 64.1841 39.1027 59.6082 40.426C61.5979 40.8589 63.4918 41.8457 65.0386 43.3925L66.4528 44.8067C66.843 45.1973 66.8432 45.8305 66.4528 46.221L65.0386 47.6352C62.5569 50.1169 59.1845 51.1607 55.9505 50.775C56.3278 51.065 56.6925 51.3803 57.0381 51.7259L58.4523 53.1401C58.8428 53.5306 58.8428 54.1638 58.4523 54.5543L57.0381 55.9685C54.701 58.3055 51.5743 59.3674 48.5169 59.1616C48.7022 59.3237 48.8844 59.4918 49.061 59.6684L50.4752 61.0826C50.8658 61.4731 50.8658 62.1063 50.4752 62.4968L49.061 63.9111C44.7652 68.2067 37.8004 68.2068 33.5047 63.9111L32.7831 63.1894L25.2203 70.7522C24.7947 71.1778 24.1047 71.1778 23.6791 70.7522C23.2535 70.3265 23.2534 69.6365 23.6791 69.2109L31.2418 61.6482L30.6762 61.0826C26.3805 56.7869 26.3806 49.8221 30.6762 45.5263L32.0905 44.1121C32.481 43.7215 33.1142 43.7215 33.5047 44.1121L34.9189 45.5263C35.1082 45.7156 35.287 45.9119 35.4596 46.1112C35.2519 43.0518 36.3147 39.9224 38.6533 37.5838L40.0675 36.1695C40.458 35.779 41.0912 35.779 41.4817 36.1695L42.8959 37.5838C43.1092 37.797 43.3095 38.0188 43.5015 38.2446C43.1469 35.0392 44.1953 31.7075 46.6531 29.2497L48.0673 27.8355C48.4578 27.4452 49.0911 27.4453 49.4816 27.8355L50.8958 29.2497C52.524 30.8779 53.5333 32.8905 53.9272 34.9949C55.1857 30.3195 59.4523 26.8847 64.5304 26.8929L66.5115 26.8964ZM32.0905 46.9405C28.5759 50.4552 28.5758 56.1537 32.0905 59.6684L32.7976 60.3755L33.5047 59.6684C37.0194 56.1537 37.0194 50.4552 33.5047 46.9405L32.7976 46.2334L32.0905 46.9405ZM47.6468 61.0826C44.1321 57.5679 38.4336 57.5679 34.9189 61.0826L34.2118 61.7897L34.9189 62.4968C38.4336 66.0115 44.1321 66.0114 47.6468 62.4968L48.3539 61.7897L47.6468 61.0826ZM38.1119 52.5531C38.2172 54.1001 37.9976 55.6639 37.4518 57.1355C38.9212 56.5906 40.4825 56.3699 42.0272 56.474C41.842 56.3119 41.6584 56.1452 41.4817 55.9685L38.6533 53.1401C38.4635 52.9503 38.2849 52.7529 38.1119 52.5531ZM40.0675 38.998C36.5528 42.5127 36.5528 48.2112 40.0675 51.7259L40.7746 52.433L41.4817 51.7259C44.9964 48.2112 44.9964 42.5127 41.4817 38.998L40.7746 38.2909L40.0675 38.998ZM55.6239 53.1401C52.1091 49.6255 46.4106 49.6254 42.8959 53.1401L42.1888 53.8472L42.8959 54.5543C46.4106 58.069 52.1091 58.069 55.6239 54.5543L56.331 53.8472L55.6239 53.1401ZM50.5698 48.5846C50.1927 48.2948 49.8276 47.9805 49.4823 47.6352L48.068 46.221L48.0673 46.2203L46.6531 44.806C46.4399 44.5928 46.2396 44.371 46.0475 44.1452C46.2354 45.8422 46.0286 47.573 45.4281 49.1923C47.0774 48.5806 48.8428 48.3787 50.5698 48.5846ZM48.0673 30.6639C44.5527 34.1785 44.553 39.8771 48.0673 43.3918L48.7745 44.0989L49.4816 43.3918C52.9961 39.8771 52.9962 34.1786 49.4816 30.6639L48.7745 29.9568L48.0673 30.6639ZM63.6244 44.8067C60.1097 41.292 54.4112 41.2921 50.8965 44.8067L50.1894 45.5138L50.8965 46.221C54.4112 49.7354 60.1098 49.7356 63.6244 46.221L64.3315 45.5138L63.6244 44.8067ZM53.6351 40.252C53.5728 40.456 53.5031 40.6581 53.4287 40.859C53.6099 40.7917 53.7924 40.7292 53.9762 40.6718C53.8273 40.5662 53.7087 40.4214 53.6351 40.252ZM64.5338 28.8934C59.5633 28.8853 55.5405 32.9081 55.5486 37.8786L55.55 38.8592L56.5305 38.8606C61.501 38.8687 65.5237 34.8457 65.5158 29.8753L65.5144 28.8948L64.5338 28.8934Z" fill="#9CB86D"/>
<defs>
<linearGradient id="paint0_linear_42_71" x1="96" y1="-5.72205e-06" x2="-5.72205e-06" y2="96" gradientUnits="userSpaceOnUse">
<stop stop-color="#9CB86D"/>
<stop offset="0.620192" stop-color="#9CB86D" stop-opacity="0.25"/>
</linearGradient>
</defs>
</svg>
