<svg width="196" height="196" viewBox="0 0 196 196" fill="none" xmlns="http://www.w3.org/2000/svg">
<g filter="url(#filter0_d_92_191)">
<circle cx="98" cy="78" r="48" fill="white"/>
<path d="M86.7273 92V87.04L97.2073 77.24C97.954 76.5467 98.5007 75.9333 98.8473 75.4C99.2207 74.8667 99.4607 74.3867 99.5673 73.96C99.7007 73.5067 99.7673 73.0933 99.7673 72.72C99.7673 71.8133 99.4607 71.1067 98.8473 70.6C98.2607 70.0933 97.3673 69.84 96.1673 69.84C95.154 69.84 94.2073 70.0667 93.3273 70.52C92.4473 70.9733 91.7273 71.6533 91.1673 72.56L85.2873 69.28C86.3273 67.52 87.834 66.1067 89.8073 65.04C91.7807 63.9733 94.1407 63.44 96.8873 63.44C99.0473 63.44 100.941 63.7867 102.567 64.48C104.194 65.1733 105.461 66.16 106.367 67.44C107.301 68.72 107.767 70.2267 107.767 71.96C107.767 72.8667 107.647 73.7733 107.407 74.68C107.167 75.56 106.701 76.5067 106.007 77.52C105.341 78.5067 104.341 79.6133 103.007 80.84L94.6873 88.52L93.3673 85.72H108.527V92H86.7273Z" fill="#F78502"/>
</g>
<defs>
<filter id="filter0_d_92_191" x="0" y="0" width="196" height="196" filterUnits="userSpaceOnUse" color-interpolation-filters="sRGB">
<feFlood flood-opacity="0" result="BackgroundImageFix"/>
<feColorMatrix in="SourceAlpha" type="matrix" values="0 0 0 0 0 0 0 0 0 0 0 0 0 0 0 0 0 0 127 0" result="hardAlpha"/>
<feOffset dy="20"/>
<feGaussianBlur stdDeviation="25"/>
<feComposite in2="hardAlpha" operator="out"/>
<feColorMatrix type="matrix" values="0 0 0 0 0 0 0 0 0 0 0 0 0 0 0 0 0 0 0.25 0"/>
<feBlend mode="normal" in2="BackgroundImageFix" result="effect1_dropShadow_92_191"/>
<feBlend mode="normal" in="SourceGraphic" in2="effect1_dropShadow_92_191" result="shape"/>
</filter>
</defs>
</svg>
