<svg width="24" height="24" viewBox="0 0 24 24" fill="none" xmlns="http://www.w3.org/2000/svg">
<g clip-path="url(#clip0_58_192)">
<path d="M0 7.99927V13.9993H7.91C7.67273 15.3958 6.94948 16.6635 5.86803 17.5785C4.78658 18.4934 3.41655 18.9966 2 18.9993V20.9993C4.121 20.9969 6.15445 20.1533 7.65422 18.6535C9.154 17.1537 9.99762 15.1203 10 12.9993V3.99927H4C2.93913 3.99927 1.92172 4.42069 1.17157 5.17084C0.421427 5.92099 0 6.9384 0 7.99927H0Z" fill="#3D3D4E"/>
<path d="M18.0002 3.99927C16.9394 3.99927 15.922 4.42069 15.1718 5.17084C14.4217 5.92099 14.0002 6.9384 14.0002 7.99927V13.9993H21.9102C21.673 15.3958 20.9497 16.6635 19.8683 17.5785C18.7868 18.4934 17.4168 18.9966 16.0002 18.9993V20.9993C18.1212 20.9969 20.1547 20.1533 21.6545 18.6535C23.1542 17.1537 23.9979 15.1203 24.0002 12.9993V3.99927H18.0002Z" fill="#3D3D4E"/>
</g>
<defs>
<clipPath id="clip0_58_192">
<rect width="24" height="24" fill="white"/>
</clipPath>
</defs>
</svg>
