<svg width="29" height="28" viewBox="0 0 29 28" fill="none" xmlns="http://www.w3.org/2000/svg">
<path d="M13.664 0.44711C14.0596 -0.149067 14.935 -0.149067 15.3306 0.447111L19.84 7.24362C19.9729 7.44388 20.1734 7.58959 20.405 7.65408L28.2623 9.84256C28.9515 10.0345 29.2221 10.8671 28.7773 11.4275L23.7069 17.8165C23.5575 18.0047 23.4809 18.2405 23.4911 18.4806L23.8378 26.6297C23.8682 27.3445 23.16 27.8591 22.4896 27.6092L14.8465 24.7613C14.6213 24.6774 14.3734 24.6774 14.1482 24.7613L6.50507 27.6092C5.83463 27.8591 5.1264 27.3445 5.15681 26.6297L5.5035 18.4806C5.51372 18.2405 5.43711 18.0047 5.28771 17.8165L0.217335 11.4275C-0.227429 10.8671 0.0430915 10.0345 0.732325 9.84256L8.58967 7.65408C8.8212 7.58959 9.02175 7.44388 9.15463 7.24362L13.664 0.44711Z" fill="#CC0D0F"/>
</svg>
