<svg width="32" height="32" viewBox="0 0 32 32" fill="none" xmlns="http://www.w3.org/2000/svg">
<g clip-path="url(#clip0_63_153)">
<path d="M1.92501 8.89182C1.47855 9.01939 1.07314 9.26132 0.748891 9.59367C0.42464 9.92602 0.19279 10.3373 0.0762806 10.7867C-0.0402286 11.2362 -0.0373581 11.7083 0.0846081 12.1563C0.206574 12.6044 0.443409 13.0128 0.771676 13.3411L5.32101 17.8851V26.6665H14.1117L18.6917 31.2398C18.9375 31.4877 19.2299 31.6846 19.5521 31.8192C19.8743 31.9537 20.2199 32.0233 20.569 32.0238C20.7985 32.0233 21.027 31.9938 21.249 31.9358C21.6983 31.8226 22.1098 31.5931 22.4422 31.2703C22.7746 30.9476 23.0161 30.5429 23.1423 30.0971L31.9877 0.027832L1.92501 8.89182ZM2.66634 11.4558L25.3703 4.76249L7.99034 22.1145V16.7811L2.66634 11.4558ZM20.5863 29.3545L15.217 23.9998H9.88368L27.261 6.63716L20.5863 29.3545Z" fill="#3D3D4E"/>
</g>
<defs>
<clipPath id="clip0_63_153">
<rect width="32" height="32" fill="white"/>
</clipPath>
</defs>
</svg>
