<svg width="14" height="14" viewBox="0 0 14 14" fill="none" xmlns="http://www.w3.org/2000/svg">
<g clip-path="url(#clip0_53_34)">
<path d="M12.8333 9.33301V12.2497C12.8333 12.4044 12.7719 12.5528 12.6625 12.6621C12.5531 12.7715 12.4047 12.833 12.25 12.833H1.75C1.59529 12.833 1.44692 12.7715 1.33752 12.6621C1.22812 12.5528 1.16667 12.4044 1.16667 12.2497V9.33301H0V12.2497C0 12.7138 0.184374 13.1589 0.512563 13.4871C0.840752 13.8153 1.28587 13.9997 1.75 13.9997H12.25C12.7141 13.9997 13.1592 13.8153 13.4874 13.4871C13.8156 13.1589 14 12.7138 14 12.2497V9.33301H12.8333Z" fill="#676A73" fill-opacity="0.75"/>
<path d="M6.9807 -0.000237506C6.75098 -0.000870775 6.52339 0.0438374 6.31098 0.131325C6.09857 0.218812 5.90551 0.347358 5.74287 0.509596L3.45679 2.79568L4.28162 3.62051L6.40145 1.50126L6.41662 11.0831H7.58329L7.56812 1.50943L9.6792 3.62051L10.504 2.79568L8.21795 0.509596C8.05542 0.347376 7.86247 0.218836 7.65015 0.131347C7.43784 0.0438587 7.21034 -0.000857718 6.9807 -0.000237506V-0.000237506Z" fill="#676A73" fill-opacity="0.75"/>
</g>
<defs>
<clipPath id="clip0_53_34">
<rect width="14" height="14" fill="white"/>
</clipPath>
</defs>
</svg>
