<svg width="32" height="32" viewBox="0 0 32 32" fill="none" xmlns="http://www.w3.org/2000/svg">
<g clip-path="url(#clip0_63_144)">
<path d="M32 32H0V4C0 2.93913 0.421427 1.92172 1.17157 1.17157C1.92172 0.421427 2.93913 0 4 0L28 0C29.0609 0 30.0783 0.421427 30.8284 1.17157C31.5786 1.92172 32 2.93913 32 4V32ZM2.66667 29.3333H29.3333V4C29.3333 3.64638 29.1929 3.30724 28.9428 3.05719C28.6928 2.80714 28.3536 2.66667 28 2.66667H4C3.64638 2.66667 3.30724 2.80714 3.05719 3.05719C2.80714 3.30724 2.66667 3.64638 2.66667 4V29.3333ZM10.6667 23.6307V8.36933L24.0213 16L10.6667 23.6307ZM13.3333 12.964V19.036L18.6453 16L13.3333 12.964Z" fill="#3D3D4E"/>
</g>
<defs>
<clipPath id="clip0_63_144">
<rect width="32" height="32" fill="white"/>
</clipPath>
</defs>
</svg>
